PathFileType	4	(X/Y/Z)	./resultDataOpenSim/trcMotMarkerGrf/sub06/qtm-04-04.trc
DataRate	CameraRate	NumFrames	NumMarkers	Units	OrigDataRate	OrigDataStartFrame	OrigNumFrames
250.000000	250.000000	12	24	m	250.000000	1	536
Frame#	Time	L.Toe.Tip			R.Toe.Tip			L.Ankle.Lat			R.Ankle.Lat			L.Ankle.Med			R.Ankle.Med			L.Heel			R.Heel			L.Knee.Lat			R.Knee.Lat			L.Knee.Med			R.Knee.Med			L.Thigh.Upper			R.Thigh.Upper			L.ASIS			R.ASIS			V.Sacral			L.Acromium			R.Acromium			C7			L.Elbow			R.Elbow			L.Wrist.Lat			R.Wrist.Lat
		X1	Y1	Z1	X2	Y2	Z2	X3	Y3	Z3	X4	Y4	Z4	X5	Y5	Z5	X6	Y6	Z6	X7	Y7	Z7	X8	Y8	Z8	X9	Y9	Z9	X10	Y10	Z10	X11	Y11	Z11	X12	Y12	Z12	X13	Y13	Z13	X14	Y14	Z14	X15	Y15	Z15	X16	Y16	Z16	X17	Y17	Z17	X18	Y18	Z18	X19	Y19	Z19	X20	Y20	Z20	X21	Y21	Z21	X22	Y22	Z22	X23	Y23	Z23	X24	Y24	Z24

1	0	-1.5495903	0.032222995	-0.06556552	-0.89550357	0.11889826	0.15020171	-1.6617751	0.090863199	-0.084468477	-1.0245996	0.087974576	0.15621961	-1.6520129	0.10441533	-0.0014292056	-1.0112573	0.11920812	0.073241437	NaN	NaN	NaN	-1.0577704	0.045119453	0.083031443	-1.4788013	0.4180141	-0.09731799	-1.1539681	0.45549629	0.16034923	-1.4919838	0.41920265	0.022348412	-1.1654348	0.43163992	0.031003101	-1.3675037	0.78922231	-0.15263339	-1.3364673	0.77932129	0.19571371	-1.278742	0.82718731	-0.11489603	-1.2541382	0.83002554	0.13177864	-1.4456105	0.91159798	0.033851219	-1.2907566	1.3116323	-0.16448225	-1.3144849	1.2999029	0.19786347	-1.3755093	1.3494828	0.012143432	-1.2729273	0.99203833	-0.23921318	-1.448335	1.0104827	0.24603001	-1.0658926	0.85801283	-0.20118988	-1.3510833	0.79107215	0.27859956
2	0.004	-1.5495233	0.032239919	-0.065629786	-0.88486997	0.12138962	0.14969517	-1.6609368	0.09186395	-0.084839128	-1.01352	0.08850082	0.15559102	-1.6508164	0.10543121	-0.0019892097	-1.0004503	0.12002915	0.072682833	NaN	NaN	NaN	-1.0460372	0.04517312	0.082463635	-1.4750379	0.41747544	-0.097567643	-1.1459967	0.4547915	0.16025635	-1.487842	0.41855826	0.022033259	-1.1585791	0.43026709	0.030416708	-1.3619236	0.78790083	-0.15237102	-1.3254868	0.77869138	0.19694546	-1.2727892	0.82591365	-0.11505793	-1.2471811	0.82865966	0.13157749	-1.4395015	0.91045435	0.034769106	-1.2848595	1.3101956	-0.16397092	-1.3088167	1.298482	0.1984291	-1.3696862	1.3481289	0.012399701	-1.265094	0.99070064	-0.23870832	-1.443999	1.0098913	0.24651353	-1.0572931	0.85826889	-0.19989045	-1.3470061	0.78947253	0.27930804
3	0.008	-1.549447	0.032254909	-0.065701487	-0.87454505	0.12349282	0.14907544	-1.659992	0.092910371	-0.085231621	-1.0027911	0.088900681	0.15491855	-1.649591	0.10650092	-0.0025048808	-0.98999891	0.12073429	0.072025307	NaN	NaN	NaN	-1.0347473	0.045156023	0.081776384	-1.4712277	0.41696017	-0.09780622	-1.1381503	0.45406313	0.16014647	-1.4835922	0.41789134	0.021734024	-1.1516178	0.42901977	0.029931838	-1.356291	0.78657461	-0.15207876	-1.3156263	0.77783107	0.19782031	-1.2667955	0.82461579	-0.11519871	-1.2401809	0.82729766	0.13138932	-1.4333542	0.90926203	0.035624388	-1.2789322	1.3087736	-0.16346653	-1.3031497	1.297073	0.19899729	-1.3638028	1.3467795	0.012761618	-1.2572857	0.98936187	-0.23815434	-1.4392761	1.0090834	0.2468578	-1.0486974	0.85852815	-0.19856	-1.3428266	0.78789707	0.28003542
4	0.012	-1.5493547	0.032269396	-0.065787034	-0.86471369	0.12495512	0.14826986	-1.6588954	0.094018275	-0.085654419	-0.992616	0.089102524	0.15415868	-1.6483458	0.10763322	-0.002967625	-0.98013532	0.12121886	0.071221805	NaN	NaN	NaN	-1.0241889	0.045020922	0.080933269	-1.4673204	0.41646997	-0.098025825	-1.1303987	0.45332515	0.16002388	-1.4791543	0.41721194	0.021455555	-1.1444773	0.4279822	0.029562011	-1.3505621	0.78524517	-0.15175232	-1.3072799	0.7766612	0.19824033	-1.2607238	0.82328822	-0.11530677	-1.2330935	0.82594519	0.13121119	-1.4271414	0.90800563	0.036449879	-1.272959	1.3073712	-0.16296621	-1.2974552	1.2956804	0.19957568	-1.3578446	1.3454364	0.013204136	-1.2495123	0.98802687	-0.23753724	-1.4340904	1.0080045	0.24706004	-1.0401164	0.85878172	-0.19719388	-1.3384939	0.78636675	0.28079092
5	0.016	-1.5492458	0.032285997	-0.065887985	-0.85544949	0.12569638	0.14724086	-1.6577621	0.095187014	-0.086074251	-0.9830604	0.089099793	0.15325917	-1.6471033	0.10882568	-0.0033992069	-0.97097411	0.12140035	0.070279131	NaN	NaN	NaN	-1.0144948	0.044734698	0.079987047	-1.4632684	0.41599008	-0.098233192	-1.1226367	0.45262215	0.15989699	-1.4744933	0.41654375	0.021192011	-1.1371427	0.42719323	0.029264573	-1.3447291	0.78392255	-0.15141269	-1.3000253	0.7752988	0.19837812	-1.254568	0.82194826	-0.1153766	-1.2259163	0.82461208	0.13103271	-1.4208609	0.90670341	0.037325593	-1.2669506	1.3059875	-0.16245741	-1.2917057	1.2943075	0.20017208	-1.3518348	1.34411	0.013651076	-1.241787	0.98670491	-0.23686251	-1.4286075	1.0067527	0.24720101	-1.031577	0.85901509	-0.1958099	-1.3340221	0.78489008	0.28157299
6	0.02	-1.549122	0.032305695	-0.066000496	-0.84676022	0.12575851	0.14595357	-1.6568015	0.096423697	-0.086430459	-0.97412403	0.08890357	0.15217939	-1.6458999	0.1100836	-0.0038161359	-0.96252771	0.12122693	0.069223468	NaN	NaN	NaN	-1.0056901	0.044261736	0.079017672	-1.4590275	0.41550238	-0.098445618	-1.1147968	0.45198087	0.15975164	-1.4696649	0.41588867	0.020945549	-1.1296213	0.4266621	0.029010416	-1.3388012	0.78261422	-0.15107099	-1.2931421	0.77393955	0.1984709	-1.2483374	0.82061878	-0.11540395	-1.2186784	0.82330176	0.1308496	-1.4145293	0.90537158	0.038280608	-1.2609134	1.3046203	-0.16193155	-1.2858928	1.2929561	0.20079083	-1.3457821	1.3428087	0.014092336	-1.2341152	0.98540397	-0.23613244	-1.4229858	1.0054489	0.24733838	-1.0230944	0.85921787	-0.19442687	-1.3294384	0.78345846	0.28237495
7	0.024	-1.5489846	0.032328274	-0.066119931	-0.83864068	0.12523528	0.14437649	-1.6559815	0.097735031	-0.086735739	-0.96582048	0.088476182	0.15095417	-1.6449509	0.11135752	-0.0041643905	-0.9547516	0.12067765	0.068075848	NaN	NaN	NaN	-0.99774829	0.04356851	0.078079106	-1.4545879	0.41499894	-0.09866427	-1.1068717	0.45139398	0.15955417	-1.4647817	0.41523434	0.020732804	-1.121914	0.42639182	0.02880381	-1.3327871	0.7813234	-0.15071513	-1.2861994	0.77270301	0.19863808	-1.2420393	0.81931779	-0.11539341	-1.2114055	0.82201538	0.13066601	-1.4081744	0.9040169	0.03927751	-1.2548393	1.3032708	-0.16139013	-1.2800253	1.2916268	0.20143171	-1.3396797	1.3415194	0.014573868	-1.2264978	0.98413069	-0.23534765	-1.4172927	1.0041573	0.24748692	-1.0146885	0.85938276	-0.19306613	-1.3247489	0.78205985	0.28319043
8	0.028	-1.5488372	0.032353454	-0.066242202	-0.83109661	0.12422079	0.14249368	-1.6549719	0.09911552	-0.087106586	-0.95818395	0.087739915	0.14968338	-1.6447706	0.11250762	-0.0042799958	-0.9476085	0.11975584	0.066845725	NaN	NaN	NaN	-0.99062591	0.042637799	0.077190681	-1.4499801	0.41448464	-0.098868554	-1.0988812	0.45085119	0.15926419	-1.4598495	0.4145793	0.020561406	-1.1140214	0.42638494	0.028657637	-1.3266892	0.78005342	-0.15032527	-1.2791524	0.77159953	0.19887162	-1.2356623	0.81805239	-0.11534983	-1.2040884	0.82076451	0.13049241	-1.4017857	0.9026525	0.040250649	-1.2487113	1.301946	-0.16082483	-1.2741086	1.2903221	0.20209077	-1.3335171	1.3402158	0.015152867	-1.2189354	0.98288884	-0.23451117	-1.4115391	1.0028918	0.24765443	-1.006392	0.85950476	-0.1917549	-1.3199436	0.78068831	0.28401646
9	0.032	-1.5486859	0.032380327	-0.066361803	-0.82413875	0.12278523	0.14030688	-1.6535888	0.10055381	-0.087627181	-0.9512242	0.086661856	0.14843154	-1.6456752	0.11342063	-0.0040469251	-0.94109385	0.11848244	0.065534827	NaN	NaN	NaN	-0.98428416	0.041475992	0.076355524	-1.4452257	0.41396202	-0.099048973	-1.0908402	0.45035535	0.15884449	-1.4547859	0.41392222	0.020419425	-1.105978	0.42661839	0.028569213	-1.3205042	0.77880606	-0.14988486	-1.2720375	0.77060753	0.1991338	-1.2291786	0.81681715	-0.11525494	-1.1966993	0.81956455	0.13034394	-1.3952492	0.90128709	0.041095455	-1.2425159	1.3006525	-0.16021201	-1.2681354	1.2890449	0.20276443	-1.3272853	1.3388889	0.015868265	-1.21143	0.98167931	-0.23363021	-1.405717	1.0016465	0.24788539	-0.99822525	0.85958275	-0.19050909	-1.3150142	0.77934356	0.28485143
10	0.036	-1.5485343	0.032406537	-0.066474489	-0.817769	0.12097023	0.13784569	-1.6519774	0.10204356	-0.088262866	-0.94491303	0.085279799	0.14719101	-1.6468821	0.11423368	-0.0037044055	-0.93521064	0.11688689	0.064144353	NaN	NaN	NaN	-0.97868967	0.040101106	0.075570099	-1.4403051	0.41342115	-0.099220418	-1.0827372	0.44991125	0.15828381	-1.4495852	0.41324103	0.020289913	-1.0978551	0.42703125	0.028523574	-1.3142303	0.77757582	-0.14939428	-1.2648084	0.76972599	0.19941952	-1.2225917	0.8156005	-0.11509445	-1.1892293	0.81842478	0.1302345	-1.3883373	0.89990425	0.041636407	-1.2362574	1.2993925	-0.15954249	-1.2620916	1.287797	0.20345095	-1.3209934	1.3375623	0.016691863	-1.2039857	0.98050422	-0.23271844	-1.3998087	1.0004064	0.24828256	-0.99018466	0.85961653	-0.18932264	-1.3099568	0.77803049	0.28569628
11	0.04	-1.5483803	0.032429441	-0.066580612	-0.81197836	0.11879264	0.13517118	-1.6503251	0.10358231	-0.088933428	-0.93920873	0.083645856	0.14593037	-1.6468899	0.11531504	-0.0037665271	-0.92994084	0.11500278	0.062684163	NaN	NaN	NaN	-0.97379998	0.038525976	0.074813217	-1.4351847	0.4128443	-0.099395074	-1.0745478	0.44952293	0.15760768	-1.4442926	0.41251166	0.020159762	-1.0897164	0.42755086	0.028499383	-1.307874	0.77635305	-0.14888005	-1.2574242	0.7689536	0.19974942	-1.2159829	0.81438249	-0.11492578	-1.1816848	0.81735255	0.13017228	-1.3808606	0.89848366	0.041730781	-1.2299522	1.2981668	-0.15883287	-1.2559681	1.2865775	0.20414904	-1.314672	1.3362715	0.017533984	-1.1966095	0.97937	-0.23179691	-1.3937911	0.99915596	0.24894583	-0.98225897	0.85960528	-0.18818138	-1.3047598	0.77675823	0.28655535
12	0.044	-1.5482159	0.032448644	-0.066685477	-0.80675121	0.11625572	0.13235314	-1.6486762	0.10516609	-0.089597248	-0.9340701	0.081787811	0.14462417	-1.6451804	0.11690333	-0.0044745935	-0.92524402	0.11286899	0.061174381	NaN	NaN	NaN	-0.96955988	0.036756382	0.074052227	-1.429848	0.41221229	-0.099569064	-1.0662701	0.44919653	0.15685431	-1.438882	0.41172815	0.020023331	-1.0815964	0.42811822	0.028470125	-1.3014485	0.77513408	-0.14838163	-1.2498792	0.76826994	0.2001477	-1.2094651	0.81313676	-0.11486137	-1.1740579	0.816355	0.13016379	-1.3729401	0.89705588	0.041499681	-1.2236134	1.2969774	-0.1580984	-1.2497619	1.2853844	0.20486102	-1.308344	1.3350334	0.018331671	-1.1893119	0.97828299	-0.23089055	-1.3876659	0.99790234	0.24983123	-0.97444425	0.85955024	-0.18707838	-1.2994048	0.77553201	0.28742988
